<?xml version="1.0" encoding="UTF-8"?>
<!DOCTYPE svg PUBLIC "-//W3C//DTD SVG 1.1//EN" "http://www.w3.org/Graphics/SVG/1.1/DTD/svg11.dtd">
<svg xmlns="http://www.w3.org/2000/svg" version="1.1" width="1000px" height="1000px" style="shape-rendering:geometricPrecision; text-rendering:geometricPrecision; image-rendering:optimizeQuality; fill-rule:evenodd; clip-rule:evenodd" xmlns:xlink="http://www.w3.org/1999/xlink">
<g><path style="opacity:1" fill="#48a1e0" d="M -0.5,-0.5 C 29.8333,-0.5 60.1667,-0.5 90.5,-0.5C 60.5,30.1667 30.1667,60.5 -0.5,90.5C -0.5,60.1667 -0.5,29.8333 -0.5,-0.5 Z"/></g>
<g><path style="opacity:1" fill="#4b9ddd" d="M 90.5,-0.5 C 101.833,-0.5 113.167,-0.5 124.5,-0.5C 108.167,16.1667 91.8333,32.8333 75.5,49.5C 66.8333,49.5 58.1667,49.5 49.5,49.5C 49.5,58.1667 49.5,66.8333 49.5,75.5C 32.8333,91.8333 16.1667,108.167 -0.5,124.5C -0.5,113.167 -0.5,101.833 -0.5,90.5C 30.1667,60.5 60.5,30.1667 90.5,-0.5 Z"/></g>
<g><path style="opacity:1" fill="#4f9adb" d="M 124.5,-0.5 C 140.5,-0.5 156.5,-0.5 172.5,-0.5C 156.167,16.1667 139.833,32.8333 123.5,49.5C 107.5,49.5 91.5,49.5 75.5,49.5C 91.8333,32.8333 108.167,16.1667 124.5,-0.5 Z"/></g>
<g><path style="opacity:1" fill="#5496d8" d="M 172.5,-0.5 C 195.833,-0.5 219.167,-0.5 242.5,-0.5C 226.167,16.1667 209.833,32.8333 193.5,49.5C 170.167,49.5 146.833,49.5 123.5,49.5C 139.833,32.8333 156.167,16.1667 172.5,-0.5 Z"/></g>
<g><path style="opacity:1" fill="#5a90d4" d="M 242.5,-0.5 C 265.833,-0.5 289.167,-0.5 312.5,-0.5C 296.167,16.1667 279.833,32.8333 263.5,49.5C 240.167,49.5 216.833,49.5 193.5,49.5C 209.833,32.8333 226.167,16.1667 242.5,-0.5 Z"/></g>
<g><path style="opacity:1" fill="#5f8bd1" d="M 312.5,-0.5 C 330.5,-0.5 348.5,-0.5 366.5,-0.5C 350.167,16.1667 333.833,32.8333 317.5,49.5C 299.5,49.5 281.5,49.5 263.5,49.5C 279.833,32.8333 296.167,16.1667 312.5,-0.5 Z"/></g>
<g><path style="opacity:1" fill="#6685cd" d="M 366.5,-0.5 C 398.833,-0.5 431.167,-0.5 463.5,-0.5C 447.167,16.1667 430.833,32.8333 414.5,49.5C 382.167,49.5 349.833,49.5 317.5,49.5C 333.833,32.8333 350.167,16.1667 366.5,-0.5 Z"/></g>
<g><path style="opacity:1" fill="#6d7fc8" d="M 463.5,-0.5 C 486.833,-0.5 510.167,-0.5 533.5,-0.5C 517.167,16.1667 500.833,32.8333 484.5,49.5C 461.167,49.5 437.833,49.5 414.5,49.5C 430.833,32.8333 447.167,16.1667 463.5,-0.5 Z"/></g>
<g><path style="opacity:1" fill="#7379c5" d="M 533.5,-0.5 C 556.833,-0.5 580.167,-0.5 603.5,-0.5C 587.167,16.1667 570.833,32.8333 554.5,49.5C 531.167,49.5 507.833,49.5 484.5,49.5C 500.833,32.8333 517.167,16.1667 533.5,-0.5 Z"/></g>
<g><path style="opacity:1" fill="#7775c2" d="M 603.5,-0.5 C 615.167,-0.5 626.833,-0.5 638.5,-0.5C 622.167,16.1667 605.833,32.8333 589.5,49.5C 577.833,49.5 566.167,49.5 554.5,49.5C 570.833,32.8333 587.167,16.1667 603.5,-0.5 Z"/></g>
<g><path style="opacity:1" fill="#7b72c0" d="M 638.5,-0.5 C 653.5,-0.5 668.5,-0.5 683.5,-0.5C 667.167,16.1667 650.833,32.8333 634.5,49.5C 619.5,49.5 604.5,49.5 589.5,49.5C 605.833,32.8333 622.167,16.1667 638.5,-0.5 Z"/></g>
<g><path style="opacity:1" fill="#806dbd" d="M 683.5,-0.5 C 708.833,-0.5 734.167,-0.5 759.5,-0.5C 743.167,16.1667 726.833,32.8333 710.5,49.5C 685.167,49.5 659.833,49.5 634.5,49.5C 650.833,32.8333 667.167,16.1667 683.5,-0.5 Z"/></g>
<g><path style="opacity:1" fill="#8667b9" d="M 759.5,-0.5 C 781.5,-0.5 803.5,-0.5 825.5,-0.5C 809.167,16.1667 792.833,32.8333 776.5,49.5C 754.5,49.5 732.5,49.5 710.5,49.5C 726.833,32.8333 743.167,16.1667 759.5,-0.5 Z"/></g>
<g><path style="opacity:1" fill="#8a63b6" d="M 825.5,-0.5 C 838.167,-0.5 850.833,-0.5 863.5,-0.5C 847.167,16.1667 830.833,32.8333 814.5,49.5C 801.833,49.5 789.167,49.5 776.5,49.5C 792.833,32.8333 809.167,16.1667 825.5,-0.5 Z"/></g>
<g><path style="opacity:1" fill="#8f5fb3" d="M 863.5,-0.5 C 883.833,-0.5 904.167,-0.5 924.5,-0.5C 908.167,16.1667 891.833,32.8333 875.5,49.5C 855.167,49.5 834.833,49.5 814.5,49.5C 830.833,32.8333 847.167,16.1667 863.5,-0.5 Z"/></g>
<g><path style="opacity:1" fill="#935bb1" d="M 924.5,-0.5 C 938.167,-0.5 951.833,-0.5 965.5,-0.5C 949.167,16.1667 932.833,32.8333 916.5,49.5C 902.833,49.5 889.167,49.5 875.5,49.5C 891.833,32.8333 908.167,16.1667 924.5,-0.5 Z"/></g>
<g><path style="opacity:1" fill="#9758af" d="M 965.5,-0.5 C 976.833,-0.5 988.167,-0.5 999.5,-0.5C 999.5,0.5 999.5,1.5 999.5,2.5C 982.833,18.8333 966.167,35.1667 949.5,51.5C 938.884,49.523 927.884,48.8564 916.5,49.5C 932.833,32.8333 949.167,16.1667 965.5,-0.5 Z"/></g>
<g><path style="opacity:1" fill="#9a55ac" d="M 999.5,2.5 C 999.5,17.8333 999.5,33.1667 999.5,48.5C 982.833,64.8333 966.167,81.1667 949.5,97.5C 949.5,82.1667 949.5,66.8333 949.5,51.5C 966.167,35.1667 982.833,18.8333 999.5,2.5 Z"/></g>
<g><path style="opacity:1" fill="#000000" d="M 75.5,49.5 C 91.5,49.5 107.5,49.5 123.5,49.5C 146.833,49.5 170.167,49.5 193.5,49.5C 216.833,49.5 240.167,49.5 263.5,49.5C 281.5,49.5 299.5,49.5 317.5,49.5C 349.833,49.5 382.167,49.5 414.5,49.5C 437.833,49.5 461.167,49.5 484.5,49.5C 507.833,49.5 531.167,49.5 554.5,49.5C 566.167,49.5 577.833,49.5 589.5,49.5C 604.5,49.5 619.5,49.5 634.5,49.5C 659.833,49.5 685.167,49.5 710.5,49.5C 732.5,49.5 754.5,49.5 776.5,49.5C 789.167,49.5 801.833,49.5 814.5,49.5C 834.833,49.5 855.167,49.5 875.5,49.5C 889.167,49.5 902.833,49.5 916.5,49.5C 927.884,48.8564 938.884,49.523 949.5,51.5C 949.5,66.8333 949.5,82.1667 949.5,97.5C 949.5,120.833 949.5,144.167 949.5,167.5C 949.5,183.833 949.5,200.167 949.5,216.5C 949.5,234.167 949.5,251.833 949.5,269.5C 949.5,282.167 949.5,294.833 949.5,307.5C 949.5,334.5 949.5,361.5 949.5,388.5C 949.5,411.833 949.5,435.167 949.5,458.5C 949.5,483.5 949.5,508.5 949.5,533.5C 949.5,555.167 949.5,576.833 949.5,598.5C 949.5,625.833 949.5,653.167 949.5,680.5C 949.5,699.833 949.5,719.167 949.5,738.5C 949.5,765.833 949.5,793.167 949.5,820.5C 949.5,843.833 949.5,867.167 949.5,890.5C 949.5,902.833 949.5,915.167 949.5,927.5C 949.5,934.833 949.5,942.167 949.5,949.5C 942.167,949.5 934.833,949.5 927.5,949.5C 915.167,949.5 902.833,949.5 890.5,949.5C 867.167,949.5 843.833,949.5 820.5,949.5C 793.167,949.5 765.833,949.5 738.5,949.5C 719.167,949.5 699.833,949.5 680.5,949.5C 653.167,949.5 625.833,949.5 598.5,949.5C 576.833,949.5 555.167,949.5 533.5,949.5C 508.5,949.5 483.5,949.5 458.5,949.5C 435.167,949.5 411.833,949.5 388.5,949.5C 361.5,949.5 334.5,949.5 307.5,949.5C 294.833,949.5 282.167,949.5 269.5,949.5C 251.833,949.5 234.167,949.5 216.5,949.5C 200.167,949.5 183.833,949.5 167.5,949.5C 144.167,949.5 120.833,949.5 97.5,949.5C 82.1667,949.5 66.8333,949.5 51.5,949.5C 49.523,938.884 48.8564,927.884 49.5,916.5C 49.5,902.833 49.5,889.167 49.5,875.5C 49.5,855.167 49.5,834.833 49.5,814.5C 49.5,801.833 49.5,789.167 49.5,776.5C 49.5,754.5 49.5,732.5 49.5,710.5C 49.5,685.167 49.5,659.833 49.5,634.5C 49.5,619.5 49.5,604.5 49.5,589.5C 49.5,577.833 49.5,566.167 49.5,554.5C 49.5,531.167 49.5,507.833 49.5,484.5C 49.5,461.167 49.5,437.833 49.5,414.5C 49.5,382.167 49.5,349.833 49.5,317.5C 49.5,299.5 49.5,281.5 49.5,263.5C 49.5,240.167 49.5,216.833 49.5,193.5C 49.5,170.167 49.5,146.833 49.5,123.5C 49.5,107.5 49.5,91.5 49.5,75.5C 49.5,66.8333 49.5,58.1667 49.5,49.5C 58.1667,49.5 66.8333,49.5 75.5,49.5 Z"/></g>
<g><path style="opacity:1" fill="#4f9adb" d="M 49.5,75.5 C 49.5,91.5 49.5,107.5 49.5,123.5C 32.8333,139.833 16.1667,156.167 -0.5,172.5C -0.5,156.5 -0.5,140.5 -0.5,124.5C 16.1667,108.167 32.8333,91.8333 49.5,75.5 Z"/></g>
<g><path style="opacity:1" fill="#9f50a9" d="M 999.5,48.5 C 999.5,71.8333 999.5,95.1667 999.5,118.5C 982.833,134.833 966.167,151.167 949.5,167.5C 949.5,144.167 949.5,120.833 949.5,97.5C 966.167,81.1667 982.833,64.8333 999.5,48.5 Z"/></g>
<g><path style="opacity:1" fill="#a44ca6" d="M 999.5,118.5 C 999.5,134.833 999.5,151.167 999.5,167.5C 982.833,183.833 966.167,200.167 949.5,216.5C 949.5,200.167 949.5,183.833 949.5,167.5C 966.167,151.167 982.833,134.833 999.5,118.5 Z"/></g>
<g><path style="opacity:1" fill="#5496d8" d="M 49.5,123.5 C 49.5,146.833 49.5,170.167 49.5,193.5C 32.8333,209.833 16.1667,226.167 -0.5,242.5C -0.5,219.167 -0.5,195.833 -0.5,172.5C 16.1667,156.167 32.8333,139.833 49.5,123.5 Z"/></g>
<g><path style="opacity:1" fill="#a948a3" d="M 999.5,167.5 C 999.5,185.167 999.5,202.833 999.5,220.5C 982.833,236.833 966.167,253.167 949.5,269.5C 949.5,251.833 949.5,234.167 949.5,216.5C 966.167,200.167 982.833,183.833 999.5,167.5 Z"/></g>
<g><path style="opacity:1" fill="#5a90d4" d="M 49.5,193.5 C 49.5,216.833 49.5,240.167 49.5,263.5C 32.8333,279.833 16.1667,296.167 -0.5,312.5C -0.5,289.167 -0.5,265.833 -0.5,242.5C 16.1667,226.167 32.8333,209.833 49.5,193.5 Z"/></g>
<g><path style="opacity:1" fill="#ac44a1" d="M 999.5,220.5 C 999.5,233.167 999.5,245.833 999.5,258.5C 982.833,274.833 966.167,291.167 949.5,307.5C 949.5,294.833 949.5,282.167 949.5,269.5C 966.167,253.167 982.833,236.833 999.5,220.5 Z"/></g>
<g><path style="opacity:1" fill="#b1409e" d="M 999.5,258.5 C 999.5,285.5 999.5,312.5 999.5,339.5C 982.833,355.833 966.167,372.167 949.5,388.5C 949.5,361.5 949.5,334.5 949.5,307.5C 966.167,291.167 982.833,274.833 999.5,258.5 Z"/></g>
<g><path style="opacity:1" fill="#5f8bd1" d="M 49.5,263.5 C 49.5,281.5 49.5,299.5 49.5,317.5C 32.8333,333.833 16.1667,350.167 -0.5,366.5C -0.5,348.5 -0.5,330.5 -0.5,312.5C 16.1667,296.167 32.8333,279.833 49.5,263.5 Z"/></g>
<g><path style="opacity:1" fill="#b83a9a" d="M 999.5,339.5 C 999.5,362.833 999.5,386.167 999.5,409.5C 982.833,425.833 966.167,442.167 949.5,458.5C 949.5,435.167 949.5,411.833 949.5,388.5C 966.167,372.167 982.833,355.833 999.5,339.5 Z"/></g>
<g><path style="opacity:1" fill="#6685cd" d="M 49.5,317.5 C 49.5,349.833 49.5,382.167 49.5,414.5C 32.8333,430.833 16.1667,447.167 -0.5,463.5C -0.5,431.167 -0.5,398.833 -0.5,366.5C 16.1667,350.167 32.8333,333.833 49.5,317.5 Z"/></g>
<g><path style="opacity:1" fill="#be3496" d="M 999.5,409.5 C 999.5,434.5 999.5,459.5 999.5,484.5C 982.833,500.833 966.167,517.167 949.5,533.5C 949.5,508.5 949.5,483.5 949.5,458.5C 966.167,442.167 982.833,425.833 999.5,409.5 Z"/></g>
<g><path style="opacity:1" fill="#6d7fc8" d="M 49.5,414.5 C 49.5,437.833 49.5,461.167 49.5,484.5C 32.8333,500.833 16.1667,517.167 -0.5,533.5C -0.5,510.167 -0.5,486.833 -0.5,463.5C 16.1667,447.167 32.8333,430.833 49.5,414.5 Z"/></g>
<g><path style="opacity:1" fill="#fbfbfb" d="M 103.5,456.5 C 117.592,455.818 130.926,458.652 143.5,465C 145.327,465.899 146.66,467.233 147.5,469C 144.461,476.25 140.794,483.083 136.5,489.5C 126.919,483.688 116.586,481.521 105.5,483C 98.3802,486.139 96.7135,491.139 100.5,498C 112.924,504.477 125.257,511.143 137.5,518C 153.864,532.467 156.031,548.967 144,567.5C 136.113,575.36 126.613,579.86 115.5,581C 98.2653,583.553 82.2653,580.22 67.5,571C 64.8207,569.654 62.8207,567.654 61.5,565C 65.616,557.268 70.116,549.768 75,542.5C 85.0162,551.93 96.8495,556.43 110.5,556C 122.558,552.179 124.558,545.513 116.5,536C 105.156,530.558 94.1558,524.558 83.5,518C 69.6315,504.334 67.7982,489.167 78,472.5C 84.9072,464.472 93.4072,459.138 103.5,456.5 Z"/></g>
<g><path style="opacity:1" fill="#fcfcfc" d="M 210.5,456.5 C 245.609,455.125 268.443,471.125 279,504.5C 284.088,532.247 275.588,554.747 253.5,572C 239.346,580.584 224.013,583.584 207.5,581C 175.466,572.291 159.133,551.291 158.5,518C 161.246,485.092 178.58,464.592 210.5,456.5 Z"/></g>
<g><path style="opacity:1" fill="#909090" d="M 545.5,459.5 C 538.412,459.205 531.412,459.538 524.5,460.5C 527.598,459.179 531.098,458.512 535,458.5C 538.683,458.501 542.183,458.835 545.5,459.5 Z"/></g>
<g><path style="opacity:1" fill="#909090" d="M 618.5,461.5 C 614.049,460.173 609.216,459.506 604,459.5C 598.754,459.524 593.588,459.857 588.5,460.5C 598.446,458.525 608.779,457.858 619.5,458.5C 619.737,459.791 619.404,460.791 618.5,461.5 Z"/></g>
<g><path style="opacity:1" fill="#fdfdfd" d="M 292.5,459.5 C 315.5,459.5 338.5,459.5 361.5,459.5C 361.5,467.167 361.5,474.833 361.5,482.5C 347.656,482.171 333.99,482.504 320.5,483.5C 319.508,491.316 319.174,499.316 319.5,507.5C 332.5,507.5 345.5,507.5 358.5,507.5C 358.5,515.167 358.5,522.833 358.5,530.5C 345.656,530.171 332.989,530.505 320.5,531.5C 320.5,547.5 320.5,563.5 320.5,579.5C 311.167,579.5 301.833,579.5 292.5,579.5C 292.5,539.5 292.5,499.5 292.5,459.5 Z"/></g>
<g><path style="opacity:1" fill="#fbfbfb" d="M 524.5,460.5 C 531.412,459.538 538.412,459.205 545.5,459.5C 553.285,486.628 560.785,513.961 568,541.5C 574.999,514.503 581.832,487.503 588.5,460.5C 593.588,459.857 598.754,459.524 604,459.5C 609.216,459.506 614.049,460.173 618.5,461.5C 607.353,500.415 596.353,539.415 585.5,578.5C 575.188,579.499 564.855,579.832 554.5,579.5C 548.472,557.768 542.139,536.102 535.5,514.5C 528.669,535.628 522.336,556.962 516.5,578.5C 506.188,579.499 495.855,579.832 485.5,579.5C 474.798,541.012 463.965,502.678 453,464.5C 452.5,470.825 452.334,477.158 452.5,483.5C 442.833,483.5 433.167,483.5 423.5,483.5C 423.5,515.5 423.5,547.5 423.5,579.5C 414.5,579.5 405.5,579.5 396.5,579.5C 396.5,547.5 396.5,515.5 396.5,483.5C 386.833,483.5 377.167,483.5 367.5,483.5C 367.5,475.167 367.5,466.833 367.5,458.5C 405.501,458.333 443.501,458.5 481.5,459C 488.894,486.407 496.06,513.907 503,541.5C 510.018,514.426 517.185,487.426 524.5,460.5 Z"/></g>
<g><path style="opacity:1" fill="#fcfcfc" d="M 661.5,458.5 C 670.192,458.169 678.859,458.502 687.5,459.5C 704.073,499.306 720.073,539.306 735.5,579.5C 725.828,579.666 716.161,579.5 706.5,579C 703.5,571.333 700.5,563.667 697.5,556C 682.167,555.333 666.833,555.333 651.5,556C 648.5,563.667 645.5,571.333 642.5,579C 632.839,579.5 623.172,579.666 613.5,579.5C 629.217,539.065 645.217,498.732 661.5,458.5 Z"/></g>
<g><path style="opacity:1" fill="#fcfcfc" d="M 769.5,533.5 C 769.44,532.957 769.107,532.624 768.5,532.5C 767.501,548.152 767.167,563.819 767.5,579.5C 758.5,579.5 749.5,579.5 740.5,579.5C 740.5,539.167 740.5,498.833 740.5,458.5C 758.871,458.098 777.204,458.598 795.5,460C 820.26,468.557 828.427,485.39 820,510.5C 815.381,519.785 808.214,526.285 798.5,530C 812.167,546.333 825.833,562.667 839.5,579C 827.833,579.667 816.167,579.667 804.5,579C 792.618,563.957 780.951,548.791 769.5,533.5 Z"/></g>
<g><path style="opacity:1" fill="#8d8d8d" d="M 872.5,483.5 C 885.99,482.504 899.656,482.171 913.5,482.5C 913.5,474.833 913.5,467.167 913.5,459.5C 890.833,459.5 868.167,459.5 845.5,459.5C 845.5,499.5 845.5,539.5 845.5,579.5C 844.501,539.337 844.168,499.003 844.5,458.5C 867.833,458.5 891.167,458.5 914.5,458.5C 914.5,466.833 914.5,475.167 914.5,483.5C 900.5,483.5 886.5,483.5 872.5,483.5 Z"/></g>
<g><path style="opacity:1" fill="#fefefe" d="M 872.5,483.5 C 872.5,491.167 872.5,498.833 872.5,506.5C 885.323,507.495 898.323,507.829 911.5,507.5C 911.5,515.167 911.5,522.833 911.5,530.5C 898.323,530.171 885.323,530.505 872.5,531.5C 872.5,539.5 872.5,547.5 872.5,555.5C 886.5,555.5 900.5,555.5 914.5,555.5C 914.5,563.5 914.5,571.5 914.5,579.5C 891.5,579.5 868.5,579.5 845.5,579.5C 845.5,539.5 845.5,499.5 845.5,459.5C 868.167,459.5 890.833,459.5 913.5,459.5C 913.5,467.167 913.5,474.833 913.5,482.5C 899.656,482.171 885.99,482.504 872.5,483.5 Z"/></g>
<g><path style="opacity:1" fill="#898989" d="M 778.5,481.5 C 775.167,481.5 771.833,481.5 768.5,481.5C 768.5,491.833 768.5,502.167 768.5,512.5C 767.506,502.013 767.172,491.346 767.5,480.5C 771.371,480.185 775.038,480.518 778.5,481.5 Z"/></g>
<g><path style="opacity:1" fill="#010101" d="M 778.5,481.5 C 791.184,482.827 796.017,489.827 793,502.5C 791.895,505.937 789.728,508.437 786.5,510C 780.659,511.951 774.659,512.784 768.5,512.5C 768.5,502.167 768.5,491.833 768.5,481.5C 771.833,481.5 775.167,481.5 778.5,481.5 Z"/></g>
<g><path style="opacity:1" fill="#a1a1a1" d="M 292.5,459.5 C 315.661,458.502 338.994,458.169 362.5,458.5C 362.5,466.833 362.5,475.167 362.5,483.5C 348.5,483.5 334.5,483.5 320.5,483.5C 333.99,482.504 347.656,482.171 361.5,482.5C 361.5,474.833 361.5,467.167 361.5,459.5C 338.5,459.5 315.5,459.5 292.5,459.5 Z"/></g>
<g><path style="opacity:1" fill="#020202" d="M 211.5,483.5 C 236.916,481.912 249.916,493.912 250.5,519.5C 249.12,547.386 234.786,558.553 207.5,553C 199.178,549.345 193.678,543.178 191,534.5C 185.254,516.531 189.087,501.031 202.5,488C 205.592,486.454 208.592,484.954 211.5,483.5 Z"/></g>
<g><path style="opacity:1" fill="#7379c5" d="M 49.5,484.5 C 49.5,507.833 49.5,531.167 49.5,554.5C 32.8333,570.833 16.1667,587.167 -0.5,603.5C -0.5,580.167 -0.5,556.833 -0.5,533.5C 16.1667,517.167 32.8333,500.833 49.5,484.5 Z"/></g>
<g><path style="opacity:1" fill="#c42e92" d="M 999.5,484.5 C 999.5,506.167 999.5,527.833 999.5,549.5C 982.833,565.833 966.167,582.167 949.5,598.5C 949.5,576.833 949.5,555.167 949.5,533.5C 966.167,517.167 982.833,500.833 999.5,484.5 Z"/></g>
<g><path style="opacity:1" fill="#0c0c0c" d="M 673.5,497.5 C 674.75,497.577 675.583,498.244 676,499.5C 680.14,510.088 683.973,520.754 687.5,531.5C 678.833,531.5 670.167,531.5 661.5,531.5C 665.299,520.103 669.299,508.77 673.5,497.5 Z"/></g>
<g><path style="opacity:1" fill="#8f8f8f" d="M 320.5,483.5 C 320.5,491.167 320.5,498.833 320.5,506.5C 333.5,506.5 346.5,506.5 359.5,506.5C 359.5,514.833 359.5,523.167 359.5,531.5C 346.5,531.5 333.5,531.5 320.5,531.5C 332.989,530.505 345.656,530.171 358.5,530.5C 358.5,522.833 358.5,515.167 358.5,507.5C 345.5,507.5 332.5,507.5 319.5,507.5C 319.174,499.316 319.508,491.316 320.5,483.5 Z"/></g>
<g><path style="opacity:1" fill="#a4a4a4" d="M 872.5,506.5 C 885.833,506.5 899.167,506.5 912.5,506.5C 912.5,514.833 912.5,523.167 912.5,531.5C 899.167,531.5 885.833,531.5 872.5,531.5C 885.323,530.505 898.323,530.171 911.5,530.5C 911.5,522.833 911.5,515.167 911.5,507.5C 898.323,507.829 885.323,507.495 872.5,506.5 Z"/></g>
<g><path style="opacity:1" fill="#8b8b8b" d="M 769.5,533.5 C 768.833,548.833 768.167,564.167 767.5,579.5C 767.167,563.819 767.501,548.152 768.5,532.5C 769.107,532.624 769.44,532.957 769.5,533.5 Z"/></g>
<g><path style="opacity:1" fill="#7775c2" d="M 49.5,554.5 C 49.5,566.167 49.5,577.833 49.5,589.5C 32.8333,605.833 16.1667,622.167 -0.5,638.5C -0.5,626.833 -0.5,615.167 -0.5,603.5C 16.1667,587.167 32.8333,570.833 49.5,554.5 Z"/></g>
<g><path style="opacity:1" fill="#cb288e" d="M 999.5,549.5 C 999.5,576.833 999.5,604.167 999.5,631.5C 982.833,647.833 966.167,664.167 949.5,680.5C 949.5,653.167 949.5,625.833 949.5,598.5C 966.167,582.167 982.833,565.833 999.5,549.5 Z"/></g>
<g><path style="opacity:1" fill="#7b72c0" d="M 49.5,589.5 C 49.5,604.5 49.5,619.5 49.5,634.5C 32.8333,650.833 16.1667,667.167 -0.5,683.5C -0.5,668.5 -0.5,653.5 -0.5,638.5C 16.1667,622.167 32.8333,605.833 49.5,589.5 Z"/></g>
<g><path style="opacity:1" fill="#909090" d="M 152.5,620.5 C 142.319,620.173 132.319,620.506 122.5,621.5C 121.957,621.44 121.624,621.107 121.5,620.5C 131.993,619.177 142.326,619.177 152.5,620.5 Z"/></g>
<g><path style="opacity:1" fill="#909090" d="M 213.5,620.5 C 223.674,619.177 234.007,619.177 244.5,620.5C 244.376,621.107 244.043,621.44 243.5,621.5C 233.681,620.506 223.681,620.173 213.5,620.5 Z"/></g>
<g><path style="opacity:1" fill="#939393" d="M 394.5,620.5 C 361.833,620.5 329.167,620.5 296.5,620.5C 296.5,628.167 296.5,635.833 296.5,643.5C 313.342,643.17 330.008,643.503 346.5,644.5C 329.5,644.5 312.5,644.5 295.5,644.5C 295.5,636.167 295.5,627.833 295.5,619.5C 328.671,619.168 361.671,619.502 394.5,620.5 Z"/></g>
<g><path style="opacity:1" fill="#fcfcfc" d="M 152.5,620.5 C 162.933,646.282 173.1,672.282 183,698.5C 192.9,672.282 203.067,646.282 213.5,620.5C 223.681,620.173 233.681,620.506 243.5,621.5C 226.884,661.063 210.551,700.73 194.5,740.5C 186.833,740.5 179.167,740.5 171.5,740.5C 155.449,700.73 139.116,661.063 122.5,621.5C 132.319,620.506 142.319,620.173 152.5,620.5 Z"/></g>
<g><path style="opacity:1" fill="#8b8b8b" d="M 276.5,620.5 C 267.5,620.5 258.5,620.5 249.5,620.5C 249.5,660.5 249.5,700.5 249.5,740.5C 248.501,700.337 248.168,660.003 248.5,619.5C 258.015,619.173 267.348,619.506 276.5,620.5 Z"/></g>
<g><path style="opacity:1" fill="#fefefe" d="M 276.5,620.5 C 276.5,660.5 276.5,700.5 276.5,740.5C 267.5,740.5 258.5,740.5 249.5,740.5C 249.5,700.5 249.5,660.5 249.5,620.5C 258.5,620.5 267.5,620.5 276.5,620.5 Z"/></g>
<g><path style="opacity:1" fill="#fdfdfd" d="M 394.5,620.5 C 375.085,652.431 355.418,684.264 335.5,716C 354.164,716.5 372.83,716.667 391.5,716.5C 391.5,724.5 391.5,732.5 391.5,740.5C 356.832,740.667 322.165,740.5 287.5,740C 307.392,708.282 327.058,676.448 346.5,644.5C 330.008,643.503 313.342,643.17 296.5,643.5C 296.5,635.833 296.5,628.167 296.5,620.5C 329.167,620.5 361.833,620.5 394.5,620.5 Z"/></g>
<g><path style="opacity:1" fill="#806dbd" d="M 49.5,634.5 C 49.5,659.833 49.5,685.167 49.5,710.5C 32.8333,726.833 16.1667,743.167 -0.5,759.5C -0.5,734.167 -0.5,708.833 -0.5,683.5C 16.1667,667.167 32.8333,650.833 49.5,634.5 Z"/></g>
<g><path style="opacity:1" fill="#d1238b" d="M 999.5,631.5 C 999.5,650.833 999.5,670.167 999.5,689.5C 982.833,705.833 966.167,722.167 949.5,738.5C 949.5,719.167 949.5,699.833 949.5,680.5C 966.167,664.167 982.833,647.833 999.5,631.5 Z"/></g>
<g><path style="opacity:1" fill="#8667b9" d="M 49.5,710.5 C 49.5,732.5 49.5,754.5 49.5,776.5C 32.8333,792.833 16.1667,809.167 -0.5,825.5C -0.5,803.5 -0.5,781.5 -0.5,759.5C 16.1667,743.167 32.8333,726.833 49.5,710.5 Z"/></g>
<g><path style="opacity:1" fill="#d71d87" d="M 999.5,689.5 C 999.5,716.833 999.5,744.167 999.5,771.5C 982.833,787.833 966.167,804.167 949.5,820.5C 949.5,793.167 949.5,765.833 949.5,738.5C 966.167,722.167 982.833,705.833 999.5,689.5 Z"/></g>
<g><path style="opacity:1" fill="#fefffe" d="M 845.5,756.5 C 854.833,756.5 864.167,756.5 873.5,756.5C 873.5,803.833 873.5,851.167 873.5,898.5C 864.167,898.5 854.833,898.5 845.5,898.5C 845.5,851.167 845.5,803.833 845.5,756.5 Z"/></g>
<g><path style="opacity:1" fill="#fefefe" d="M 895.5,756.5 C 904.833,756.5 914.167,756.5 923.5,756.5C 923.5,803.833 923.5,851.167 923.5,898.5C 914.167,898.5 904.833,898.5 895.5,898.5C 895.5,851.167 895.5,803.833 895.5,756.5 Z"/></g>
<g><path style="opacity:1" fill="#8a63b6" d="M 49.5,776.5 C 49.5,789.167 49.5,801.833 49.5,814.5C 32.8333,830.833 16.1667,847.167 -0.5,863.5C -0.5,850.833 -0.5,838.167 -0.5,825.5C 16.1667,809.167 32.8333,792.833 49.5,776.5 Z"/></g>
<g><path style="opacity:1" fill="#fefefe" d="M 99.5,776.5 C 211.5,776.5 323.5,776.5 435.5,776.5C 435.5,785.833 435.5,795.167 435.5,804.5C 323.5,804.5 211.5,804.5 99.5,804.5C 99.5,795.167 99.5,785.833 99.5,776.5 Z"/></g>
<g><path style="opacity:1" fill="#dd1783" d="M 999.5,771.5 C 999.5,794.833 999.5,818.167 999.5,841.5C 982.833,857.833 966.167,874.167 949.5,890.5C 949.5,867.167 949.5,843.833 949.5,820.5C 966.167,804.167 982.833,787.833 999.5,771.5 Z"/></g>
<g><path style="opacity:1" fill="#e21380" d="M 999.5,841.5 C 999.5,853.833 999.5,866.167 999.5,878.5C 982.833,894.833 966.167,911.167 949.5,927.5C 949.5,915.167 949.5,902.833 949.5,890.5C 966.167,874.167 982.833,857.833 999.5,841.5 Z"/></g>
<g><path style="opacity:1" fill="#8f5fb3" d="M 49.5,814.5 C 49.5,834.833 49.5,855.167 49.5,875.5C 32.8333,891.833 16.1667,908.167 -0.5,924.5C -0.5,904.167 -0.5,883.833 -0.5,863.5C 16.1667,847.167 32.8333,830.833 49.5,814.5 Z"/></g>
<g><path style="opacity:1" fill="#935bb1" d="M 49.5,875.5 C 49.5,889.167 49.5,902.833 49.5,916.5C 32.8333,932.833 16.1667,949.167 -0.5,965.5C -0.5,951.833 -0.5,938.167 -0.5,924.5C 16.1667,908.167 32.8333,891.833 49.5,875.5 Z"/></g>
<g><path style="opacity:1" fill="#e5107e" d="M 999.5,878.5 C 999.5,893.5 999.5,908.5 999.5,923.5C 973.833,948.5 948.5,973.833 923.5,999.5C 908.5,999.5 893.5,999.5 878.5,999.5C 894.833,982.833 911.167,966.167 927.5,949.5C 934.833,949.5 942.167,949.5 949.5,949.5C 949.5,942.167 949.5,934.833 949.5,927.5C 966.167,911.167 982.833,894.833 999.5,878.5 Z"/></g>
<g><path style="opacity:1" fill="#9758af" d="M 49.5,916.5 C 48.8564,927.884 49.523,938.884 51.5,949.5C 35.1667,966.167 18.8333,982.833 2.5,999.5C 1.5,999.5 0.5,999.5 -0.5,999.5C -0.5,988.167 -0.5,976.833 -0.5,965.5C 16.1667,949.167 32.8333,932.833 49.5,916.5 Z"/></g>
<g><path style="opacity:1" fill="#e90d7b" d="M 999.5,923.5 C 999.5,948.833 999.5,974.167 999.5,999.5C 974.167,999.5 948.833,999.5 923.5,999.5C 948.5,973.833 973.833,948.5 999.5,923.5 Z"/></g>
<g><path style="opacity:1" fill="#9a55ac" d="M 51.5,949.5 C 66.8333,949.5 82.1667,949.5 97.5,949.5C 81.1667,966.167 64.8333,982.833 48.5,999.5C 33.1667,999.5 17.8333,999.5 2.5,999.5C 18.8333,982.833 35.1667,966.167 51.5,949.5 Z"/></g>
<g><path style="opacity:1" fill="#9f50a9" d="M 97.5,949.5 C 120.833,949.5 144.167,949.5 167.5,949.5C 151.167,966.167 134.833,982.833 118.5,999.5C 95.1667,999.5 71.8333,999.5 48.5,999.5C 64.8333,982.833 81.1667,966.167 97.5,949.5 Z"/></g>
<g><path style="opacity:1" fill="#a44ca6" d="M 167.5,949.5 C 183.833,949.5 200.167,949.5 216.5,949.5C 200.167,966.167 183.833,982.833 167.5,999.5C 151.167,999.5 134.833,999.5 118.5,999.5C 134.833,982.833 151.167,966.167 167.5,949.5 Z"/></g>
<g><path style="opacity:1" fill="#a948a3" d="M 216.5,949.5 C 234.167,949.5 251.833,949.5 269.5,949.5C 253.167,966.167 236.833,982.833 220.5,999.5C 202.833,999.5 185.167,999.5 167.5,999.5C 183.833,982.833 200.167,966.167 216.5,949.5 Z"/></g>
<g><path style="opacity:1" fill="#ac44a1" d="M 269.5,949.5 C 282.167,949.5 294.833,949.5 307.5,949.5C 291.167,966.167 274.833,982.833 258.5,999.5C 245.833,999.5 233.167,999.5 220.5,999.5C 236.833,982.833 253.167,966.167 269.5,949.5 Z"/></g>
<g><path style="opacity:1" fill="#b1409e" d="M 307.5,949.5 C 334.5,949.5 361.5,949.5 388.5,949.5C 372.167,966.167 355.833,982.833 339.5,999.5C 312.5,999.5 285.5,999.5 258.5,999.5C 274.833,982.833 291.167,966.167 307.5,949.5 Z"/></g>
<g><path style="opacity:1" fill="#b83a9a" d="M 388.5,949.5 C 411.833,949.5 435.167,949.5 458.5,949.5C 442.167,966.167 425.833,982.833 409.5,999.5C 386.167,999.5 362.833,999.5 339.5,999.5C 355.833,982.833 372.167,966.167 388.5,949.5 Z"/></g>
<g><path style="opacity:1" fill="#be3496" d="M 458.5,949.5 C 483.5,949.5 508.5,949.5 533.5,949.5C 517.167,966.167 500.833,982.833 484.5,999.5C 459.5,999.5 434.5,999.5 409.5,999.5C 425.833,982.833 442.167,966.167 458.5,949.5 Z"/></g>
<g><path style="opacity:1" fill="#c42e92" d="M 533.5,949.5 C 555.167,949.5 576.833,949.5 598.5,949.5C 582.167,966.167 565.833,982.833 549.5,999.5C 527.833,999.5 506.167,999.5 484.5,999.5C 500.833,982.833 517.167,966.167 533.5,949.5 Z"/></g>
<g><path style="opacity:1" fill="#cb288e" d="M 598.5,949.5 C 625.833,949.5 653.167,949.5 680.5,949.5C 664.167,966.167 647.833,982.833 631.5,999.5C 604.167,999.5 576.833,999.5 549.5,999.5C 565.833,982.833 582.167,966.167 598.5,949.5 Z"/></g>
<g><path style="opacity:1" fill="#d1238b" d="M 680.5,949.5 C 699.833,949.5 719.167,949.5 738.5,949.5C 722.167,966.167 705.833,982.833 689.5,999.5C 670.167,999.5 650.833,999.5 631.5,999.5C 647.833,982.833 664.167,966.167 680.5,949.5 Z"/></g>
<g><path style="opacity:1" fill="#d71d87" d="M 738.5,949.5 C 765.833,949.5 793.167,949.5 820.5,949.5C 804.167,966.167 787.833,982.833 771.5,999.5C 744.167,999.5 716.833,999.5 689.5,999.5C 705.833,982.833 722.167,966.167 738.5,949.5 Z"/></g>
<g><path style="opacity:1" fill="#dd1783" d="M 820.5,949.5 C 843.833,949.5 867.167,949.5 890.5,949.5C 874.167,966.167 857.833,982.833 841.5,999.5C 818.167,999.5 794.833,999.5 771.5,999.5C 787.833,982.833 804.167,966.167 820.5,949.5 Z"/></g>
<g><path style="opacity:1" fill="#e21380" d="M 890.5,949.5 C 902.833,949.5 915.167,949.5 927.5,949.5C 911.167,966.167 894.833,982.833 878.5,999.5C 866.167,999.5 853.833,999.5 841.5,999.5C 857.833,982.833 874.167,966.167 890.5,949.5 Z"/></g>
</svg>
